<?xml version="1.0" encoding="UTF-8"?>
<svg width="28px" height="28px" viewBox="0 0 28 28" version="1.1" xmlns="http://www.w3.org/2000/svg" xmlns:xlink="http://www.w3.org/1999/xlink">
    <!-- Generator: Sketch 47.1 (45422) - http://www.bohemiancoding.com/sketch -->
    <title>穿衣icon-舒适</title>
    <desc>Created with Sketch.</desc>
    <defs></defs>
    <g id="Page-1" stroke="none" stroke-width="1" fill="none" fill-rule="evenodd">
        <g id="主页-穿衣指数" transform="translate(-34.000000, -1237.000000)">
            <g id="指数" transform="translate(0.000000, 1224.000000)">
                <g id="穿衣指数-舒适" transform="translate(26.000000, 13.000000)">
                    <g id="穿衣icon-舒适" transform="translate(8.000000, 0.000000)">
                        <rect id="Rectangle-9" fill="#D8D8D8" opacity="0" x="0" y="0" width="28" height="28"></rect>
                        <path d="M17.612807,4 C17.4108002,4 17.2091873,4.04425408 17.0213564,4.13316823 C16.6476636,4.31018453 16.3669018,4.6455411 16.2519194,5.05235379 C16.1109478,5.55051664 15.4395608,6.07994154 14.4732361,6.07994154 C13.5147869,6.07994154 12.8430062,5.55457664 12.6980969,5.0600678 C12.5795705,4.65690912 12.2980211,4.32601855 11.9259034,4.15184426 C11.7400414,4.06536611 11.5403973,4.02192404 11.3407532,4.02192404 C11.1407154,4.02192404 10.9410713,4.06536611 10.7548155,4.15265626 L8.31577101,5.2951422 C7.93065871,5.47500051 7.38252343,5.85379915 6.9611838,6.63535048 C6.76508368,6.9995331 6.35713242,7.75672439 4.02243837,21.1336351 C3.95352769,21.5282678 4.04488357,21.9346745 4.27524215,22.257851 C4.50520695,22.5810276 4.85409191,22.7921479 5.23959798,22.842492 L6.44455055,22.9996143 C6.50479817,23.0073283 6.56425825,23.0113883 6.62371833,23.0113883 C7.27541653,23.0113883 7.85466007,22.5477355 8.0042947,21.8766164 C8.19566952,21.0158949 8.50123919,19.6915207 8.82925406,18.2831043 C8.85327436,19.5616005 8.88989546,20.8181726 8.94541779,21.7808002 C8.96983186,22.2034469 9.17105106,22.5948316 9.49709705,22.8530481 C10.1570645,23.3763829 11.5616612,24 14.5004066,24 C17.4293077,24 18.836267,23.3751649 19.5013536,22.851018 C19.8289747,22.5928016 20.0309814,22.2006049 20.0553955,21.7763342 C20.110524,20.8193906 20.1467514,19.5632245 20.1699841,18.2814803 C20.4995741,19.6943627 20.8063251,21.0219849 20.9980937,21.8778344 C21.1477283,22.5481415 21.7261843,23.0113883 22.3778825,23.0113883 C22.4369488,23.0113883 22.4968027,23.0073283 22.5574441,22.9996143 L23.7604278,22.842492 C24.1463276,22.7921479 24.4952126,22.5810276 24.7251774,22.257445 C24.9551422,21.9342685 25.046498,21.5278618 24.9775874,21.1332291 C22.6385618,7.75347638 22.2329732,6.9991271 22.0384482,6.63616248 C21.7076769,6.02431944 21.2280585,5.54929863 20.6854361,5.2951422 L18.1987447,4.13073222 C18.0128828,4.04344207 17.8124511,4 17.612807,4 M17.6124132,5.46200849 L20.0987108,6.62601246 C20.2546458,6.69868659 20.5527338,6.88950691 20.7984496,7.34422769 C20.9811613,7.68445626 21.5856065,9.97024015 23.5824413,21.3926636 L22.3790638,21.5497858 C21.9045645,19.4276202 20.7401708,14.4865918 20.2400761,12.3688922 L20.2038488,12.216236 C20.1239124,11.8833154 19.8325186,11.653113 19.5241925,11.653113 C19.4911154,11.653113 19.4576445,11.655549 19.4241736,11.661233 C19.0654443,11.7058931 18.7961019,12.0209496 18.7968895,12.4131463 C18.7984646,13.0676194 18.8067339,18.7901991 18.6401669,21.6898561 C18.3345972,21.9310205 17.2879423,22.5383975 14.5004066,22.5383975 C11.7034203,22.5383975 10.6630659,21.9334565 10.3606464,21.6939161 C10.1830537,18.6152128 10.2023487,12.4557764 10.2027425,12.3944703 C10.2043176,12.0213556 9.93458147,11.7058931 9.58687783,11.662857 C9.54986295,11.656767 9.51402939,11.653925 9.47780206,11.653925 C9.15884403,11.653925 8.87414445,11.8816914 8.79499561,12.216642 C8.77924459,12.2844441 7.19744901,18.9696514 6.622537,21.5497858 L5.41758443,21.3926636 C7.41048148,9.97511216 8.01650174,7.68729827 8.2007886,7.34544569 C8.44650442,6.88950691 8.74498614,6.69909259 8.9021025,6.62601246 L11.3407532,5.48352652 C11.6876693,6.66417653 12.9568073,7.54195002 14.4732361,7.54195002 C15.9995094,7.54195002 17.2753415,6.65362051 17.6124132,5.46200849" id="Page-1" fill="#E1A4C4"></path>
                    </g>
                </g>
            </g>
        </g>
    </g>
</svg>